<?xml version="1.0" encoding="utf-8"?>
<!-- Generator: Adobe Illustrator 25.1.0, SVG Export Plug-In . SVG Version: 6.00 Build 0)  -->
<svg version="1.1" id="Layer_1" xmlns="http://www.w3.org/2000/svg" xmlns:xlink="http://www.w3.org/1999/xlink" x="0px" y="0px"
	 viewBox="0 0 738 852" style="enable-background:new 0 0 738 852;" xml:space="preserve">
<style type="text/css">
	.st0{fill:#141227;}
	.st1{fill:none;stroke:#A2A4A7;stroke-width:10;stroke-linecap:round;stroke-miterlimit:10;}
	.st2{fill:#404040;}
	.st3{fill:#36A85D;}
	.st4{fill:#DB1F26;}
	.st5{fill:#FFF34D;}
	.st6{fill:#FFFFFF;}
	.st7{font-family:'MyriadPro-Bold';}
	.st8{font-size:135.229px;}
	.st9{font-size:46.0605px;}
	.st10{fill:#939393;}
	.st11{fill:#26A9E0;}
</style>
<polygon class="st0" points="718.9,224 369,22 369,22 19.1,224 19.1,628 369,830 718.9,628 "/>
<line class="st1" x1="430" y1="131.2" x2="430" y2="288"/>
<line class="st1" x1="594.1" y1="350.2" x2="429.2" y2="282.6"/>
<line class="st1" x1="429.2" y1="282.6" x2="385.9" y2="400.7"/>
<path class="st2" d="M736.4,638.4V214.1l-29.3-16.9L429.3,36.8L369,2l-60.3,34.8L30.9,197.2L1.6,214.1v424.3l29.3,16.9l281.3,162.4
	l56.9,32.8l56.9-32.8l281.3-162.4L736.4,638.4z M30.9,622.5V232.1L369,36.8l0,0L707.1,232v390.4L369,817.7L30.9,622.5z"/>
<polygon class="st3" points="496.1,233.1 496.1,186.1 456.2,162.9 415.7,186.1 415.7,233.1 456.2,256.2 "/>
<polygon class="st4" points="562.6,331.3 562.6,301.5 537.6,286.9 511.6,301.5 511.6,331.3 537.6,346 "/>
<polyline class="st5" points="390.6,313.3 418.8,297.5 447,313.3 447,345.8 418.8,362 390.6,345.8 390.6,313.3 "/>
<text transform="matrix(1 0 0 1 52.2768 489.3906)" class="st6 st7 st8">seascapeR</text>
<text transform="matrix(0.8562 -0.5167 0.5167 0.8562 389.9252 774.5342)" class="st6 st7 st9">marinebon.org</text>
<path class="st10" d="M195.4,229.1c10.1-10.1,20.1-20.2,30.2-30.2c6-6,13.7-6,19.7,0c12.6,12.5,25.1,25.1,37.6,37.6
	c1,1,1.9,2.1,2.6,3.3c3,5.7,2.1,11.5-2.5,16.1c-10.2,10.2-20.5,20.4-30.7,30.7c-0.4,0.4-0.8,0.8-1.2,1.2c0.1,0.2,0.2,0.3,0.3,0.3
	c0.9,0.9,1.8,1.7,2.6,2.6c0.7,0.9,1.4,0.9,2.3,0.5c12.5-5.4,25.5-7.3,39-5.8c9.6,1,18.7,3.8,27.2,8.3c1.4,0.8,2.5,1.8,3,3.4
	c0.9,2.8-0.2,4.9-2.1,6.8c-13.8,13.8-27.6,27.6-41.5,41.3c-0.4,0.4-0.9,0.7-1.6,1.2c2,1.9,3.7,3.5,5.3,5.3c1.3,1.5,2.6,2.5,4.6,1.5
	c0.4-0.2,1-0.1,1.4,0c5.3,0.4,9.9,3.9,11.4,8.6c1.8,5.5,0.3,10.5-4.1,14.2c-4.2,3.5-10,3.9-14.9,0.9c-4-2.4-7.1-8-5.7-13.2
	c0.1-0.4,0.1-1-0.2-1.3c-2.2-2.3-4.4-4.5-6.9-7c-0.4,0.6-0.7,1-1.1,1.4c-13.7,13.7-27.3,27.4-41,41.1c-0.5,0.5-0.9,0.9-1.4,1.3
	c-3.3,2.6-7.3,1.9-9.2-1.8c-1.1-2.1-2.2-4.3-3.1-6.5c-5.2-12.7-6.9-25.9-5-39.6c0.9-6.9,2.7-13.6,5.6-20.1c0.2-0.5,0.3-1.4,0-1.8
	c-0.9-1.3-2.1-2.4-3.4-3.8c-0.7,0.8-1,1.3-1.4,1.7c-10.1,10.2-20.3,20.3-30.4,30.5c-5.6,5.6-13.4,5.8-19,0.3
	c-13-12.9-25.9-25.8-38.7-38.8c-3.2-3.2-4.4-7.1-3.5-11.5c0.6-3,2.2-5.3,4.2-7.4c10.1-10.1,20.2-20.1,30.3-30.2
	c0.4-0.4,1.1-0.7,1.8-1.1c-6.7-6.7-12.9-12.8-19.1-19c-6-6-6.1-14-0.2-20.1c6.1-6.2,12.2-12.4,18.5-18.5c5.9-5.8,13.9-5.7,19.8,0.1
	c3.5,3.4,6.9,6.8,10.3,10.2c2.8,2.8,5.7,5.7,8.9,8.9C194.7,230.1,194.9,229.5,195.4,229.1z M237.4,273.7
	c9.1-9.2,18.3-18.4,27.3-27.5c-9.7-9.7-19.5-19.5-29.3-29.3c-9,9-18.2,18.3-27.3,27.6C217.7,254,227.5,263.9,237.4,273.7z
	 M141.8,310.2c9.8,9.9,19.7,19.8,29.4,29.6c9.3-9.2,18.6-18.4,27.8-27.5c-9.8-9.8-19.7-19.7-29.6-29.6
	C160.1,291.8,150.9,301.1,141.8,310.2z"/>
<path class="st11" d="M458.9,587c-28.8-0.2-54.1-5.5-77.7-17.5c-3.1-1.6-6.2-3.4-9.1-5.4c-2-1.4-3.6-1.5-5.8-0.1
	c-15.9,10.1-33.2,16.6-51.7,19.9c-37.9,6.7-74.5,2.8-109.2-14.7c-3.1-1.6-6.2-3.4-9.1-5.4c-1.8-1.2-3.1-1.1-4.8,0.1
	c-13.9,8.9-28.9,15.5-45,19.1c-10.3,2.3-20.8,3.6-31.2,4.9c-5.7,0.7-9-2.6-9-8.3c0-4.1-0.1-8.3,0-12.4c0.1-5.4,2.5-7.9,8-8.4
	c21.9-1.8,42.6-7.2,61.2-19.2c2.9-1.8,5.5-4,8.3-6c7.1-5.2,13-5.4,20-0.1c18.6,14,39.7,21,62.7,23.3c25.9,2.5,51-0.4,74.5-12
	c6.4-3.2,12.3-7.3,18.2-11.3c7.3-4.9,13-5.3,20,0.1c12.9,10,27.5,16.4,43.3,20.1c21.1,4.9,42.3,5.3,63.6,1.2
	c17.7-3.4,33.8-10.3,48.2-21.2c7.2-5.4,13.1-5.4,20.3,0.1c19,14.6,40.8,22.2,64.5,24.5c1.6,0.2,3.1,0.4,4.7,0.6
	c5.7,0.5,8.1,2.9,8.1,8.6c0,4.1,0.1,8.3,0,12.4c-0.1,5.5-3.3,8.6-8.9,8.2c-18.1-1.3-35.9-4.7-52.6-11.9c-8-3.5-15.6-7.8-23.3-12
	c-1.9-1.1-3.2-1.3-5.2,0C515.8,580.4,486.9,586.6,458.9,587z"/>
</svg>
